<svg xmlns="http://www.w3.org/2000/svg" viewBox="0 0 97.32 97.32"><defs><style>.cls-1{fill:#ef4136;}.cls-2,.cls-3{fill:none;}.cls-3{stroke:#fff;stroke-miterlimit:10;stroke-width:5px;}.cls-4{fill:#00a651;}.cls-5{fill:#da1c5c;}.cls-6{fill:#1c75bc;}.cls-7{fill:#f7941d;}.cls-8{fill:#8dc63f;}</style></defs><g id="Layer_1" data-name="Layer 1"><path class="cls-1" d="M18.84,31.13a36.41,36.41,0,0,0-2.12,33.72H38.31ZM50,13.56A36.32,36.32,0,0,0,20.5,28.62L31.28,47.29,50.49,13.56Zm-31.93,54A36.35,36.35,0,0,0,47.33,86.33L57.58,67.55ZM68.91,52.46l-18.56,34A36.37,36.37,0,0,0,79.88,70.85ZM53.48,13.75,42.83,32.45h39.1A36.32,36.32,0,0,0,53.48,13.75Zm29.8,21.4H61.73L81.5,68.3a36.41,36.41,0,0,0,1.78-33.15Z" transform="translate(-1.34 -1.34)"/><path class="cls-2" d="M16.72,64.85c.2.45.42.9.63,1.35s.46.9.72,1.35m61.81,3.3c.28-.4.55-.82.82-1.24s.54-.86.8-1.31" transform="translate(-1.34 -1.34)"/><circle class="cls-3" cx="48.66" cy="48.66" r="46.16"/></g><g id="Layer_2" data-name="Layer 2"><path class="cls-4" d="M38.31,64.85H16.72a36.41,36.41,0,0,1,2.12-33.72Z" transform="translate(-1.34 -1.34)"/><path class="cls-5" d="M57.58,67.55,47.33,86.33A36.35,36.35,0,0,1,18.07,67.55Z" transform="translate(-1.34 -1.34)"/><path class="cls-6" d="M79.88,70.85A36.37,36.37,0,0,1,50.35,86.44l18.56-34Z" transform="translate(-1.34 -1.34)"/><path class="cls-7" d="M86.44,50A36.06,36.06,0,0,1,81.5,68.3L61.73,35.15H83.28A36.11,36.11,0,0,1,86.44,50Z" transform="translate(-1.34 -1.34)"/><path class="cls-8" d="M81.93,32.45H42.83l10.65-18.7A36.32,36.32,0,0,1,81.93,32.45Z" transform="translate(-1.34 -1.34)"/><path class="cls-1" d="M50.49,13.56,31.28,47.29,20.5,28.62A36.32,36.32,0,0,1,50,13.56Z" transform="translate(-1.34 -1.34)"/></g></svg>