<svg id="Layer_1" data-name="Layer 1" xmlns="http://www.w3.org/2000/svg" viewBox="0 0 97.32 97.32"><defs><style>.cls-1{fill:#fff;}.cls-2,.cls-3{fill:none;}.cls-3{stroke:#fff;stroke-miterlimit:10;stroke-width:5px;}</style></defs><path class="cls-1" d="M18.84,31.13a36.41,36.41,0,0,0-2.12,33.72H38.31ZM50,13.56A36.32,36.32,0,0,0,20.5,28.62L31.28,47.29,50.49,13.56Zm-31.93,54A36.35,36.35,0,0,0,47.33,86.33L57.58,67.55ZM68.91,52.46l-18.56,34A36.37,36.37,0,0,0,79.88,70.85ZM53.48,13.75,42.83,32.45h39.1A36.32,36.32,0,0,0,53.48,13.75Zm29.8,21.4H61.73L81.5,68.3a36.41,36.41,0,0,0,1.78-33.15Z" transform="translate(-1.34 -1.34)"/><path class="cls-2" d="M16.72,64.85c.2.45.42.9.63,1.35s.46.9.72,1.35m61.81,3.3c.28-.4.55-.82.82-1.24s.54-.86.8-1.31" transform="translate(-1.34 -1.34)"/><circle class="cls-3" cx="48.66" cy="48.66" r="46.16"/></svg>