<svg id="Layer_5" data-name="Layer 5" xmlns="http://www.w3.org/2000/svg" xmlns:xlink="http://www.w3.org/1999/xlink" viewBox="0 0 95.53 95.53"><defs><style>.cls-1{fill:url(#Orange_Yellow);}.cls-2{fill:url(#Orange_Yellow-2);}.cls-3{fill:url(#Orange_Yellow-3);}.cls-4{fill:url(#Orange_Yellow-4);}.cls-5{fill:url(#Orange_Yellow-5);}.cls-6{fill:url(#Orange_Yellow-6);}.cls-7{fill:url(#Orange_Yellow-7);}.cls-8{fill:url(#Orange_Yellow-8);}.cls-9{fill:url(#Orange_Yellow-9);}</style><linearGradient id="Orange_Yellow" x1="23.12" y1="90.55" x2="66.22" y2="24.22" gradientUnits="userSpaceOnUse"><stop offset="0" stop-color="#fff33b"/><stop offset="0.04" stop-color="#fee72e"/><stop offset="0.12" stop-color="#fed51b"/><stop offset="0.2" stop-color="#fdca10"/><stop offset="0.28" stop-color="#fdc70c"/><stop offset="0.67" stop-color="#f3903f"/><stop offset="0.89" stop-color="#ed683c"/><stop offset="1" stop-color="#e93e3a"/></linearGradient><linearGradient id="Orange_Yellow-2" x1="8.62" y1="81.12" x2="51.71" y2="14.8" xlink:href="#Orange_Yellow"/><linearGradient id="Orange_Yellow-3" x1="37.72" y1="100.03" x2="80.81" y2="33.71" xlink:href="#Orange_Yellow"/><linearGradient id="Orange_Yellow-4" x1="47.83" y1="106.61" x2="90.93" y2="40.28" xlink:href="#Orange_Yellow"/><linearGradient id="Orange_Yellow-5" x1="-0.82" y1="74.99" x2="42.28" y2="8.67" xlink:href="#Orange_Yellow"/><linearGradient id="Orange_Yellow-6" x1="-6.43" y1="71.34" x2="36.66" y2="5.02" xlink:href="#Orange_Yellow"/><linearGradient id="Orange_Yellow-7" x1="52.77" y1="109.81" x2="95.86" y2="43.49" xlink:href="#Orange_Yellow"/><linearGradient id="Orange_Yellow-8" x1="28.53" y1="94.06" x2="71.62" y2="27.74" xlink:href="#Orange_Yellow"/><linearGradient id="Orange_Yellow-9" x1="17.81" y1="87.09" x2="60.9" y2="20.77" xlink:href="#Orange_Yellow"/></defs><path class="cls-1" d="M49.86,72.57A23.18,23.18,0,1,1,73,49.39,23.2,23.2,0,0,1,49.86,72.57Zm0-42.36A19.18,19.18,0,1,0,69,49.39,19.19,19.19,0,0,0,49.86,30.21Z" transform="translate(-2.24 -1.63)"/><path class="cls-2" d="M56.39,23.62H43.33a5.34,5.34,0,0,1-4.62-8L45.24,4.3a5.33,5.33,0,0,1,9.25,0L61,15.61a5.34,5.34,0,0,1-4.63,8Zm-6.53-18a1.32,1.32,0,0,0-1.16.68L42.17,17.61a1.31,1.31,0,0,0,0,1.34,1.32,1.32,0,0,0,1.16.67H56.39a1.34,1.34,0,0,0,1.17-2L51,6.3A1.33,1.33,0,0,0,49.86,5.62Z" transform="translate(-2.24 -1.63)"/><path class="cls-3" d="M50,97.15a5.3,5.3,0,0,1-4.63-2.67L38.84,83.17a5.35,5.35,0,0,1,4.63-8H56.53a5.35,5.35,0,0,1,4.63,8L54.63,94.48A5.3,5.3,0,0,1,50,97.15Zm-6.53-18a1.35,1.35,0,0,0-1.16,2l6.53,11.31a1.34,1.34,0,0,0,2.32,0l6.53-11.31a1.35,1.35,0,0,0-1.16-2Z" transform="translate(-2.24 -1.63)"/><path class="cls-4" d="M81.11,61.84a5.36,5.36,0,0,1-5.35-5.35V43.43a5.35,5.35,0,0,1,8-4.63l11.31,6.53a5.35,5.35,0,0,1,0,9.26L83.78,61.12A5.35,5.35,0,0,1,81.11,61.84Zm0-19.76a1.38,1.38,0,0,0-1.36,1.35V56.49a1.35,1.35,0,0,0,2,1.16l11.31-6.53A1.31,1.31,0,0,0,93.76,50a1.33,1.33,0,0,0-.67-1.17L81.78,42.27A1.29,1.29,0,0,0,81.12,42.08Z" transform="translate(-2.24 -1.63)"/><path class="cls-5" d="M18.89,62a5.26,5.26,0,0,1-2.67-.73L4.91,54.72a5.34,5.34,0,0,1,0-9.25l11.31-6.53a5.35,5.35,0,0,1,8,4.63v13A5.39,5.39,0,0,1,18.89,62Zm0-19.76a1.27,1.27,0,0,0-.66.18L6.91,48.93a1.35,1.35,0,0,0,0,2.33l11.31,6.53a1.35,1.35,0,0,0,2-1.17v-13a1.33,1.33,0,0,0-.68-1.17A1.4,1.4,0,0,0,18.88,42.22Z" transform="translate(-2.24 -1.63)"/><path class="cls-6" d="M23.29,37.41a5.62,5.62,0,0,1-1.4-.19,5.28,5.28,0,0,1-3.78-3.78L14.73,20.82h0a5.34,5.34,0,0,1,6.54-6.55l12.62,3.38a5.34,5.34,0,0,1,2.39,8.94l-9.23,9.24A5.31,5.31,0,0,1,23.29,37.41ZM19.87,18.09a1.35,1.35,0,0,0-.93.4,1.32,1.32,0,0,0-.35,1.3h0L22,32.4a1.32,1.32,0,0,0,1,1,1.3,1.3,0,0,0,1.3-.34l9.23-9.24a1.31,1.31,0,0,0,.35-1.3,1.33,1.33,0,0,0-.95-.95L20.24,18.14A1.64,1.64,0,0,0,19.87,18.09Z" transform="translate(-2.24 -1.63)"/><path class="cls-7" d="M80,84.68a5.68,5.68,0,0,1-1.41-.18L66,81.12a5.35,5.35,0,0,1-2.4-8.94l9.24-9.24a5.35,5.35,0,0,1,8.94,2.4L85.14,78A5.36,5.36,0,0,1,80,84.68Zm-3.42-19.3a1.28,1.28,0,0,0-.94.39L66.41,75a1.32,1.32,0,0,0-.35,1.3,1.3,1.3,0,0,0,1,1l12.62,3.38A1.34,1.34,0,0,0,81.27,79L77.89,66.37a1.32,1.32,0,0,0-1-1A1.56,1.56,0,0,0,76.58,65.38Z" transform="translate(-2.24 -1.63)"/><path class="cls-8" d="M76.47,37.31a5.29,5.29,0,0,1-3.75-1.57L63.49,26.5a5.34,5.34,0,0,1,2.39-8.94L78.5,14.18A5.35,5.35,0,0,1,85,20.73L81.66,33.34a5.39,5.39,0,0,1-5.19,4Zm3.06-19.26L66.92,21.43a1.3,1.3,0,0,0-1,.95,1.33,1.33,0,0,0,.34,1.3l9.24,9.23a1.34,1.34,0,0,0,2.25-.6l3.38-12.62a1.35,1.35,0,0,0-1.65-1.64Z" transform="translate(-2.24 -1.63)"/><path class="cls-9" d="M20,84.78a5.36,5.36,0,0,1-5.14-6.73L18.2,65.43A5.34,5.34,0,0,1,27.14,63l9.24,9.23A5.35,5.35,0,0,1,34,81.21L21.37,84.59A5.26,5.26,0,0,1,20,84.78Zm3.42-19.31a1.47,1.47,0,0,0-.36,0,1.3,1.3,0,0,0-.95,1L18.69,79.08a1.34,1.34,0,0,0,1.64,1.65L33,77.35a1.34,1.34,0,0,0,.95-.95,1.32,1.32,0,0,0-.35-1.3l-9.23-9.23A1.3,1.3,0,0,0,23.38,65.47Z" transform="translate(-2.24 -1.63)"/></svg>