<svg id="Layer_4" data-name="Layer 4" xmlns="http://www.w3.org/2000/svg" viewBox="0 0 95.53 95.53"><defs><style>.cls-1{fill:none;stroke:#fff;stroke-miterlimit:10;stroke-width:4px;}</style></defs><circle class="cls-1" cx="47.63" cy="47.76" r="21.18"/><path class="cls-1" d="M47,5.3,40.44,16.61a3.34,3.34,0,0,0,2.89,5H56.39a3.34,3.34,0,0,0,2.9-5L52.76,5.3A3.34,3.34,0,0,0,47,5.3Z" transform="translate(-2.24 -1.63)"/><path class="cls-1" d="M52.9,93.48l6.53-11.31a3.35,3.35,0,0,0-2.9-5H43.47a3.35,3.35,0,0,0-2.9,5L47.1,93.48A3.35,3.35,0,0,0,52.9,93.48Z" transform="translate(-2.24 -1.63)"/><path class="cls-1" d="M94.09,47.06,82.78,40.53a3.35,3.35,0,0,0-5,2.9V56.49a3.35,3.35,0,0,0,5,2.9l11.31-6.53A3.35,3.35,0,0,0,94.09,47.06Z" transform="translate(-2.24 -1.63)"/><path class="cls-1" d="M5.91,53l11.31,6.53a3.34,3.34,0,0,0,5-2.89V43.57a3.35,3.35,0,0,0-5-2.9L5.91,47.2A3.34,3.34,0,0,0,5.91,53Z" transform="translate(-2.24 -1.63)"/><path class="cls-1" d="M16.66,20.31,20,32.92a3.34,3.34,0,0,0,5.59,1.5l9.24-9.23a3.35,3.35,0,0,0-1.5-5.6L20.75,16.21A3.34,3.34,0,0,0,16.66,20.31Z" transform="translate(-2.24 -1.63)"/><path class="cls-1" d="M83.2,78.47,79.82,65.85a3.34,3.34,0,0,0-5.59-1.49L65,73.59a3.34,3.34,0,0,0,1.49,5.59l12.62,3.38A3.33,3.33,0,0,0,83.2,78.47Z" transform="translate(-2.24 -1.63)"/><path class="cls-1" d="M79,16.12,66.4,19.5a3.34,3.34,0,0,0-1.5,5.59l9.23,9.24a3.35,3.35,0,0,0,5.6-1.5l3.38-12.62A3.34,3.34,0,0,0,79,16.12Z" transform="translate(-2.24 -1.63)"/><path class="cls-1" d="M20.85,82.66l12.62-3.38A3.34,3.34,0,0,0,35,73.69l-9.23-9.24A3.34,3.34,0,0,0,20.14,66L16.76,78.57A3.34,3.34,0,0,0,20.85,82.66Z" transform="translate(-2.24 -1.63)"/></svg>