<?xml version="1.0" encoding="utf-8"?>
<!-- Generator: Adobe Illustrator 25.0.0, SVG Export Plug-In . SVG Version: 6.00 Build 0)  -->
<svg version="1.1" xmlns="http://www.w3.org/2000/svg" xmlns:xlink="http://www.w3.org/1999/xlink" x="0px" y="0px"
	 viewBox="0 0 95.5 95.5" style="enable-background:new 0 0 95.5 95.5;" xml:space="preserve">
<style type="text/css">
	.st0{fill:#D67BB2;}
	.st1{opacity:0.5;fill:#823F6F;enable-background:new    ;}
	.st2{fill:#64BC46;}
	.st3{fill:#3C7A36;}
	.st4{fill:none;stroke:#231F20;stroke-width:3;stroke-miterlimit:10;}
	.st5{fill:#231F20;}
	.st6{fill:#FFFFFF;}
</style>
<g id="Layer_2">
</g>
<g id="Layer_1">
	<g id="Layer_3">
		<path class="st0" d="M34.7,89.1c-0.3,0.3-0.6,0.6-0.8,0.9l-9.7-9.7c0,0,1.6-3.3-2.2-7.1c-3.8-3.8-7.1-2.2-7.1-2.2l-9.7-9.7
			c4.9-4.9,12-7.2,18.6-6.4c-2.7-8.7-0.7-18.6,6.3-25.5c6.8-6.8,16.4-8.9,25-6.4c-0.5-6.4,1.8-13.2,6.5-17.8l9.7,9.7
			c0,0-1.6,3.3,2.2,7.1c3.8,3.8,7.1,2.2,7.1,2.2l9.7,9.7c-1.6,1.6-3.4,2.9-5.4,3.9c-3.8,2-8.2,2.9-12.5,2.6c2.5,8.6,0.3,18.2-6.4,25
			c-4.3,4.3-9.8,6.7-15.4,7.3c-3.5,0.4-7,0-10.4-1.1c0,0.2,0,0.5,0.1,0.7C40.8,78.2,38.7,84.5,34.7,89.1z"/>
		<path class="st1" d="M34.7,89.1L34,87.9c-1-1.7-0.6-3.9,0.8-5.3c3.5-3.4-0.5-11.8-1.1-17.2c2.5,3.2,4.6,5.3,6.5,6.8
			C40.8,78.2,38.7,84.5,34.7,89.1z"/>
		<path class="st1" d="M63.6,33.4c8.1,2.2,13.8,2.3,15.7,2.5c2,0.2,3.9-0.3,5.2,1.3l0.4,0.5c-3.8,2-8.2,2.9-12.5,2.6
			c2.5,8.6,0.3,18.2-6.4,25c-4.3,4.3-9.8,6.7-15.4,7.3c1.9-1.4,3.7-3.4,5.8-5.2c4.6-3.8,8.3-7.6,9.7-15.1
			C67.6,45.1,64.7,37.1,63.6,33.4z"/>
		<path class="st2" d="M59.6,70.8l-3.3-3L41.5,54.1l-17-18.3L37.7,23c0,0,6.1,8.8,15.9,18.6c4.6,4.6,9,8.4,12.4,11.2
			c3.7,3,6.1,4.6,6.1,4.6L59.6,70.8z"/>
		<path class="st3" d="M55.6,68.1c0.9-0.7,2.3-1.9,3.1-2.8c3.7-3.7,6.2-8,7.3-12.6c3.7,3,6.1,4.6,6.1,4.6L59.6,70.8L55.6,68.1z"/>
		<path class="st4" d="M40.2,71.5C49,74.3,59,72.2,66,65.3c6.8-6.8,8.9-16.4,6.4-25c6.4,0.5,13.2-1.8,17.8-6.5l-9.6-9.7
			c0,0-3.3,1.6-7.1-2.2c-3.8-3.8-2.2-7.1-2.2-7.1l-9.7-9.6c-4.7,4.7-7,11.4-6.5,17.8c-8.6-2.5-18.2-0.3-25,6.4
			c-6.9,6.9-9,16.8-6.3,25.5c-6.6-0.8-13.8,1.6-18.6,6.4l9.6,9.7c0,0,3.3-1.6,7.1,2.2c3.8,3.8,2.2,7.1,2.2,7.1l9.7,9.6
			C38.6,85.1,41,78.1,40.2,71.5z"/>
		<path class="st4" d="M38.4,23.8c0,0,5.8,8.5,15.3,18C62.9,51,71.6,57,71.6,57"/>
		<path class="st4" d="M25.7,35.6c0,0,6.2,8.8,15.7,18.4c9.8,9.8,18.4,15.7,18.4,15.7"/>
	</g>
	<g id="Layer_5">
		<g>
			<path class="st5" d="M64.8,15.9c-0.4,0.8-0.6,1.5-0.8,2.2c-0.2,0.7-0.4,1.4-0.6,2.2c-0.2,0.7-0.4,1.5-0.7,2.3s-0.8,1.6-1.5,2.1
				c0-0.9,0-1.7,0-2.5s0.1-1.6,0.3-2.5c0.2-0.8,0.6-1.7,1.1-2.4C63.1,16.7,63.9,16.1,64.8,15.9z"/>
		</g>
		<g>
			<path class="st5" d="M67,23.8c-0.3,0.8-0.8,1.5-1.3,2c-0.6,0.6-1.2,1.1-2,1.3c0.3-0.8,0.8-1.5,1.3-2C65.5,24.6,66.1,24.1,67,23.8
				z"/>
		</g>
		<g>
			<path class="st5" d="M65.9,29.2c1.5-0.7,3.2-1,4.8-1.1c1.7,0,3.3,0.3,4.8,1c-1.7,0-3.2,0-4.8,0S67.6,29.2,65.9,29.2z"/>
		</g>
		<g>
			<path class="st5" d="M66.4,31.8c1.4-0.1,2.8,0,4.1,0.2c0.7,0.1,1.4,0.3,2,0.5c0.7,0.2,1.3,0.4,2,0.8c0.3,0.2,0.7,0.5,0.9,0.9
				c0.2,0.4,0.2,1-0.1,1.4c-0.5,0.8-1.3,1-2.1,1.1c-1.4,0.2-2.9,0.1-4.1-0.5c1.4,0.1,2.7,0,4-0.3c0.6-0.2,1.2-0.5,1.4-0.8
				c0.2-0.4,0-0.7-0.5-1.1c-0.5-0.3-1.1-0.5-1.8-0.8c-0.6-0.2-1.3-0.4-1.9-0.6C69.1,32.4,67.8,32.1,66.4,31.8z"/>
		</g>
		<g>
			<path class="st5" d="M25,59c-1.8,0.1-3.4,0.4-4.9,1.1c-1.5,0.6-2.9,1.5-4.2,2.7c0.6-1.7,2.1-3,3.8-3.7C21.4,58.5,23.3,58.3,25,59
				z"/>
		</g>
		<g>
			<path class="st5" d="M25.9,61.5c-0.8,0.4-1.5,0.6-2.3,0.7c-0.8,0.1-1.5,0.3-2.4,0.2c0.6-0.7,1.4-1,2.2-1.2
				C24.2,61.1,25,61.1,25.9,61.5z"/>
		</g>
		<g>
			<path class="st5" d="M29.4,65c0,1-0.4,1.9-1,2.6s-1.2,1.4-2.2,1.8c0.4-0.9,0.9-1.6,1.4-2.3C28.2,66.3,28.7,65.6,29.4,65z"/>
		</g>
		<g>
			<path class="st5" d="M35.5,70.4c0.3,0.9,0.3,2,0.1,2.9c-0.2,1-0.5,2-1.2,2.8c-0.4,0.4-1,0.7-1.6,0.7s-1.2-0.3-1.6-0.6
				c-0.9-0.7-1.1-1.8-1.3-2.7c0.5,0.8,1,1.7,1.7,2.1c0.7,0.4,1.5,0.4,2-0.2s0.9-1.5,1.2-2.3S35.3,71.4,35.5,70.4z"/>
		</g>
	</g>
	<g id="Layer_6">
		<g>
			<path class="st6" d="M26.7,45c0.6-2.4,1.7-4.8,3-7s2.9-4.2,4.8-6c1.8-1.8,3.8-3.6,6.2-4.6s5-1.6,7.6-1.4c0.1,0,0.2,0.1,0.1,0.2
				c0,0.1,0,0.1-0.1,0.1c-2.2,1.4-4.3,2.5-6.3,3.8s-4.1,2.3-6,3.8s-3.6,3.2-5.1,5.1c-1.6,1.9-2.8,4-3.9,6.2c0,0.1-0.1,0.1-0.2,0.1
				C26.7,45.2,26.7,45.1,26.7,45z"/>
		</g>
		<g>
			<path class="st6" d="M40.3,64.4c0.8-0.4,1.6-0.7,2.3-0.8c0.7-0.2,1.3-0.2,2-0.2c0.3,0,0.7,0,1,0s0.6,0,0.9,0.1
				c0.6,0.2,1.3,0.6,2.1,1.7l0,0c0.3,0.4,0.3,0.9,0.1,1.3c-0.7,1.1-1.4,1.6-2.2,1.8c-0.4,0.1-0.8,0.1-1.2,0.1s-0.7,0-1.1-0.1
				c-0.8-0.1-1.5-0.4-2.3-0.8c-0.7-0.4-1.4-1-1.9-1.8c-0.3-0.4-0.2-0.9,0.2-1.2C40.2,64.5,40.2,64.5,40.3,64.4L40.3,64.4z"/>
		</g>
		<g>
			<path class="st6" d="M20.5,66.8c-0.6-0.3-1-0.3-1.5-0.2c-0.5,0.1-1,0.2-1.5,0.3c-0.6,0.1-1.2,0.2-1.9,0.1c-0.7-0.1-1.5-0.4-2-1.1
				l0.1,0.1c-0.3-0.3-0.7-0.7-1-1.1s-0.7-0.8-0.9-1.3c0.5,0.1,1,0.2,1.5,0.4c0.5,0.1,1,0.3,1.4,0.6l0.1,0.1c0.2,0.2,0.5,0.2,1,0.3
				c0.4,0.1,0.9,0.1,1.5,0.1s1.2,0.1,1.9,0.4C19.9,65.6,20.5,66.1,20.5,66.8z"/>
		</g>
		<g>
			<path class="st6" d="M28.5,80.4c-0.5-0.4-0.8-0.9-0.9-1.5c-0.1-0.5-0.2-1.1,0.1-1.7c0.5,0.4,0.8,0.9,0.9,1.5
				C28.7,79.2,28.7,79.7,28.5,80.4z"/>
		</g>
		<g>
			<path class="st6" d="M65.5,13.9c0.6,0,1.1,0.3,1.5,0.7s0.8,0.9,1,1.5c0.4,1.1,0.5,2.2,0.7,3.1c0.1,0.9,0.4,1.8,0.6,2.7
				c0.3,0.9,0.6,1.8,1,2.9c-1-0.5-1.8-1.3-2.4-2.2c-0.6-0.9-1-2-1.2-3.1s-0.1-2.1-0.2-3C66.4,15.6,66.2,14.7,65.5,13.9z"/>
		</g>
	</g>
</g>
</svg>
